<svg width="210.432" height="237.568" viewBox="0 0 210.432 237.568" xmlns="http://www.w3.org/2000/svg"><g id="svgGroup" stroke-linecap="round" fill-rule="nonzero" font-size="9pt" stroke="#c01c28" stroke-width="0.5" fill="#c01c28" style="stroke:#c01c28;stroke-width:0.5;fill:#c01c28"><path d="M 203.776 145.408 L 210.432 145.408 Q 208.896 163.072 198.912 176.512 A 32.744 32.744 0 0 1 175.705 189.555 A 51.089 51.089 0 0 1 169.216 189.952 Q 153.344 189.952 140.928 181.376 Q 128.512 172.8 121.6 158.208 Q 114.688 143.616 114.688 126.208 A 75.084 75.084 0 0 1 121.262 94.665 A 70.533 70.533 0 0 1 121.472 94.208 Q 128.256 79.616 140.672 71.04 Q 153.088 62.464 168.704 62.464 A 43.988 43.988 0 0 1 182.972 64.617 A 31.465 31.465 0 0 1 189.312 67.584 Q 197.632 72.704 201.728 80.64 Q 205.824 88.576 205.824 97.024 Q 205.824 106.24 200.192 113.024 Q 194.56 119.808 186.624 119.808 Q 180.736 119.808 176.896 116.352 Q 173.056 112.896 173.056 107.008 Q 173.056 100.096 181.248 93.44 Q 187.392 88.32 187.392 82.944 Q 187.392 77.568 183.424 73.088 A 13.818 13.818 0 0 0 174.69 68.871 A 27.756 27.756 0 0 0 170.752 68.608 Q 158.72 68.608 153.088 83.84 Q 149.147 94.498 147.964 110.984 A 213.318 213.318 0 0 0 147.456 126.208 Q 147.456 139.776 147.968 147.328 Q 148.48 154.88 150.272 161.536 Q 152.576 171.008 159.104 176.64 Q 165.632 182.272 174.336 182.272 Q 186.88 182.272 194.56 171.264 Q 202.24 160.256 203.776 145.408 Z M 89.6 237.568 L 72.192 237.568 L 0 0 L 17.408 0 L 89.6 237.568 Z"/></g></svg>
